<?xml version="1.0" encoding="utf-8"?>
<!-- Generator: Adobe Illustrator 18.0.0, SVG Export Plug-In . SVG Version: 6.00 Build 0)  -->
<!DOCTYPE svg PUBLIC "-//W3C//DTD SVG 1.1//EN" "http://www.w3.org/Graphics/SVG/1.1/DTD/svg11.dtd">
<svg version="1.1" id="Layer_1" xmlns="http://www.w3.org/2000/svg" xmlns:xlink="http://www.w3.org/1999/xlink" x="0px" y="0px"
	 viewBox="0 0 610.9 60" enable-background="new 0 0 610.9 60" xml:space="preserve">
<g>
	<path fill="#FFFFFF" d="M274.4,6.8c-12.5,0.9-22.3,11.3-22.3,24c0,13.3,10.8,24.1,24.1,24.1h9.1v-9.5h-9.1
		c-8.1,0-14.6-6.6-14.6-14.6c0-7.5,5.6-13.6,12.9-14.5l19.7,0v38.6h9.2V6.8H274.4z"/>
	<path fill="#FFFFFF" d="M339,5.5c-12.9,0-23.4,10.5-23.4,23.4v26h8.3v-26h0c0.7-7.7,7.2-13.7,15.1-13.7c8.4,0,15.2,6.8,15.2,15.2
		V55h8.2V28.8C362.3,15.9,351.9,5.5,339,5.5z"/>
	<path fill="#FFFFFF" d="M419.4,31.1c0.2-12.9-10.2-23.5-23-23.7l-21.7-0.2l-0.1,8.3l21.7,0.2v0c7.7,0.8,13.6,7.4,13.5,15.3
		c-0.1,8.4-7,15.1-15.4,15l-20.5-0.2l-0.1,8.2l21.9,0.2C408.6,54.3,419.2,44,419.4,31.1z"/>
	<path fill="#FFFFFF" d="M507.1,5c-13.4,0-24.2,10.8-24.2,24.2c0,13.4,10.8,24.2,24.2,24.2c13.4,0,24.2-10.8,24.2-24.2
		C531.3,15.8,520.5,5,507.1,5z M507.1,43.5c-7.9,0-14.3-6.4-14.3-14.3c0-7.9,6.4-14.3,14.3-14.3s14.3,6.4,14.3,14.3
		C521.4,37.1,515,43.5,507.1,43.5z"/>
	<rect x="542.3" y="7.2" fill="#FFFFFF" width="9.6" height="46.9"/>
	<path fill="#FFFFFF" d="M608.9,30.6c0.2-12.9-10.2-23.5-23-23.7l-21.7-0.2L564,15l21.7,0.2v0c7.7,0.8,13.6,7.4,13.5,15.3
		c-0.1,8.4-7,15.1-15.4,15l-20.5-0.2l-0.1,8.2l21.9,0.2C598.1,53.9,608.7,43.5,608.9,30.6z"/>
	<path fill="#FFFFFF" d="M465.8,38.8c4.9-3,8.2-8.5,8.2-14.6c0-9.5-7.7-17.2-17.2-17.2h-25.2v9.4l25.2,0c4.3,0,7.8,3.5,7.8,7.8
		c0,4.3-3.5,7.8-7.8,7.8h-25.2v9.6c0,0,20.9,0,23.9,0c3,0,5.9,5.3,5.9,8.8v4.2h9.5v-4.2C470.8,45.7,468.9,41.7,465.8,38.8z"/>
</g>
<g>
	<path fill="#FFFFFF" d="M36.6,26.3c0.4,0,0.7,0.3,0.7,0.7v23.7c0,0.2-0.1,0.3-0.3,0.5c0,0.1-1.3,0.7-3.6,1.8s-5.7,1.7-10,1.8
		c-5.4,0.3-10.4-1.1-15-4.2S1.3,40.8,1,30.5C1.2,20.2,3.4,13.3,7.6,9.8s9-5.1,14.4-4.9C26.4,5,29.7,5.4,31.7,6s3.1,1,3.3,1.3
		c0.2,0.2,0.3,0.4,0.3,0.6l-1.7,7.3c0,0.2-0.1,0.4-0.3,0.5c-0.2,0.2-0.4,0.2-0.6,0.2c-0.7-0.3-1.7-0.5-3.1-0.8
		c-1.4-0.3-3.3-0.5-5.9-0.5c-3.2-0.2-6,0.6-8.5,2.6s-3.8,6.2-4,12.8c0.2,6.6,1.4,10.9,3.6,12.7c2.3,1.9,4.6,2.7,7,2.5
		c1.8,0,3.2-0.1,4-0.2c0.8-0.2,1.2-0.2,1.1-0.2v-9.5h-6c-0.4,0-0.7-0.3-0.7-0.7V27c0-0.4,0.3-0.7,0.7-0.7L36.6,26.3L36.6,26.3z
		 M51,9.4c1.1,1.1,1.6,2.4,1.6,4s-0.5,2.9-1.6,4C50,18.5,48.6,19,47,19s-3-0.5-4-1.6s-1.6-2.4-1.6-4s0.5-2.9,1.6-4
		c1.1-1.1,2.4-1.6,4-1.7C48.6,7.8,50,8.3,51,9.4z M52.1,22.5v30.3c0,0.7-0.3,1.1-1.1,1.2h-7.9c-0.3,0-0.6-0.1-0.9-0.3
		c-0.3-0.2-0.4-0.5-0.4-0.9V22.6c0-0.2,0.1-0.4,0.2-0.6c0.2-0.2,0.3-0.3,0.5-0.3h8.7C51.7,21.8,52,22,52.1,22.5L52.1,22.5z
		 M77.2,46.3c0.4,0,0.7,0.3,0.7,0.7v6.2c0,0.3-0.1,0.5-0.4,0.6s-0.9,0.3-1.9,0.5s-2.1,0.3-3.3,0.4c-2.5,0.2-5.1-0.4-7.6-1.7
		s-3.9-4.4-4.2-9.3V30.1H56c-0.4,0-0.7-0.3-0.7-0.7v-5.6c0-0.4,0.2-0.6,0.5-0.7l4.8-1.2V13c0-0.4,0.2-0.6,0.5-0.5H70
		c0.4,0,0.6,0.2,0.6,0.5v8.7h6.6c0.4,0,0.7,0.3,0.7,0.7v7c0,0.4-0.3,0.7-0.7,0.7h-6.6V43c0,1,0.3,1.8,1,2.4s1.8,1,3.3,1
		c0.5,0,1,0,1.4-0.1C76.7,46.3,77,46.3,77.2,46.3L77.2,46.3z M115,6.7c0.4,0,0.7,0.3,0.7,0.7v45.8c0,0.4-0.3,0.7-0.7,0.7h-8.8
		c-0.4,0-0.7-0.3-0.7-0.7V33.6H91.9v19.6c0,0.4-0.3,0.7-0.7,0.7h-8.8c-0.4,0-0.7-0.3-0.7-0.7V7.4c0-0.4,0.3-0.7,0.7-0.7h8.8
		c0.4,0,0.7,0.3,0.7,0.7v16.9h13.6V7.4c0-0.4,0.3-0.7,0.7-0.7L115,6.7L115,6.7z M149.6,22.5v30.7c0,0.4-0.3,0.7-0.7,0.7h-5.6
		c-0.3,0-0.6-0.2-0.6-0.4s-0.2-0.5-0.2-1.1l-0.1-0.8c-0.1,0.1-1.1,0.7-3.1,1.6c-2,0.9-4.4,1.4-7.3,1.6c-3.6,0.1-6.4-0.7-8.6-2.3
		c-2.2-1.6-3.3-4.6-3.4-9.1v-21c0-0.4,0.3-0.7,0.7-0.7h8.8c0.4,0,0.7,0.3,0.7,0.7V42c0,1.5,0.2,2.7,0.8,3.4c0.6,0.7,1.7,1.1,3.2,1
		c1.6,0,2.8-0.3,3.8-0.7c1-0.5,1.5-0.7,1.5-0.8V22.5c0-0.4,0.3-0.7,0.7-0.7h8.7C149.3,21.8,149.5,22.1,149.6,22.5z M172.7,20.7
		c2.7-0.2,5.3,0.7,7.9,2.7s4.1,6.4,4.3,13.2c0,6.9-1.1,11.7-3.3,14.3c-2.1,2.7-5.2,3.9-9.3,3.8c-3.4-0.1-6-0.7-7.7-1.7
		c-1.8-1-2.6-1.6-2.6-1.7l-0.1,1c-0.1,0.6-0.2,0.9-0.3,1.2c-0.2,0.3-0.4,0.4-0.6,0.4h-6.1c-0.4,0-0.7-0.3-0.7-0.7V7.4
		c0-0.4,0.3-0.7,0.7-0.7h8.8c0.4,0,0.7,0.3,0.7,0.7v15.5c0-0.1,0.8-0.5,2.3-1.1S170.1,20.8,172.7,20.7L172.7,20.7z M169.2,46.4
		c2.1,0.2,3.6-0.4,4.4-1.6c0.8-1.3,1.2-3.8,1.2-7.6c0-3.6-0.7-5.9-1.9-6.9s-2.6-1.4-4.2-1.2c-1.3,0.2-2.3,0.5-3.2,0.8
		c-0.8,0.4-1.3,0.6-1.3,0.6V45c0,0,0.5,0.3,1.4,0.7C166.4,46.1,167.7,46.4,169.2,46.4L169.2,46.4z"/>
</g>
<g>
	<path fill="#FFFFFF" d="M218.7,16.9h2.9v12.4h12.5v2.8h-12.5v12.4h-2.9V32.1h-12.5v-2.8h12.5V16.9z"/>
</g>
</svg>
