<?xml version="1.0" encoding="UTF-8"?>
<svg width="400px" height="400px" viewBox="0 0 400 400" version="1.1" xmlns="http://www.w3.org/2000/svg" xmlns:xlink="http://www.w3.org/1999/xlink">
    <title>dribbble</title>
    <g id="dribbble" stroke="none" stroke-width="1" fill="none" fill-rule="evenodd">
        <path d="M200,400 C89.54305,400 0,310.45695 0,200 C0,89.54305 89.54305,0 200,0 C310.45695,0 400,89.54305 400,200 C399.872217,310.403977 310.403977,399.872217 200,400 Z M200,28.9855072 C105.551304,28.9855072 28.9855072,105.551304 28.9855072,200 C28.9855072,294.448696 105.551304,371.014493 200,371.014493 C294.448696,371.014493 371.014493,294.448696 371.014493,200 C370.886758,105.604264 294.395736,29.1132418 200,28.9855072 Z" id="Shape" fill="#FFFFFF" fill-rule="nonzero"></path>
        <path d="M107.362319,196.174089 C74.9365657,196.211905 42.7964089,190.114324 12.6376812,178.202899 C7.41855626,176.621442 3.52902567,172.244046 2.57241225,166.875139 C1.61579884,161.506232 3.75406679,156.054824 8.10578995,152.768066 C12.4575131,149.481309 18.2859015,148.915683 23.1884058,151.304348 C87.6499168,176.233672 159.851403,171.264511 220.289855,137.73913 C256.664825,117.356767 286.805168,87.4569061 307.478261,51.2463768 C311.428268,44.3141673 320.238444,41.8784126 327.188406,45.7971014 C334.135393,49.7924445 336.566769,58.6385147 332.637681,65.6231884 C309.35391,106.362094 275.454317,140.021264 234.550725,163.014493 C195.695303,184.78093 151.899056,196.199094 107.362319,196.174089 Z" id="Path" fill="#FFFFFF" fill-rule="nonzero"></path>
        <path d="M85.2173913,360.231917 C83.0555924,360.21552 80.9217878,359.741341 78.9565217,358.84058 C75.4970449,357.16486 72.8449959,354.183425 71.5838632,350.552233 C70.3227304,346.92104 70.5558326,342.937577 72.2318841,339.478261 C129.167634,221.480564 265.134587,164.438101 389.217391,206.492754 C394.284245,208.052476 398.095131,212.25431 399.154187,217.448936 C400.213242,222.643562 398.351441,228.001917 394.299585,231.420717 C390.247728,234.839518 384.652494,235.773124 379.710145,233.855072 C269.537394,196.55305 148.840719,247.228745 98.3188406,352 C95.9043506,357.040692 90.806505,360.243763 85.2173913,360.231917 Z" id="Path" fill="#FFFFFF" fill-rule="nonzero"></path>
        <path d="M261.565217,389.449275 L258.086957,389.449275 C254.350371,388.542988 251.127058,386.189028 249.126523,382.905541 C247.125988,379.622054 246.512209,375.678179 247.42029,371.942029 C252.539413,350.208209 255.10747,327.951716 255.072464,305.623188 C255.083351,275.674519 250.428503,245.906965 241.275362,217.391304 C234.743049,196.720158 225.833173,176.877202 214.724638,158.26087 C187.937004,112.906781 149.296816,75.7095865 102.956522,50.6666667 C95.9128901,46.8567023 93.2914849,38.0581243 97.1014493,31.0144928 C100.911414,23.9708612 109.709992,21.3494559 116.753623,25.1594203 C167.635355,52.5656951 210.114642,93.2816909 239.652174,142.956522 C251.920732,163.466862 261.764519,185.333297 268.985507,208.115942 C278.988452,239.531725 284.072693,272.305527 284.058843,305.275362 C284.116027,329.871141 281.275178,354.388061 275.594203,378.318841 C274.00671,384.796293 268.233966,389.376321 261.565217,389.449275 Z" id="Path" fill="#FFFFFF" fill-rule="nonzero"></path>
    </g>
</svg>