<?xml version="1.0" encoding="UTF-8"?>
<svg width="400px" height="400px" viewBox="0 0 400 400" version="1.1" xmlns="http://www.w3.org/2000/svg" xmlns:xlink="http://www.w3.org/1999/xlink">
    <title>github</title>
    <g id="github" stroke="none" stroke-width="1" fill="none" fill-rule="evenodd">
        <path d="M231.353906,276.698437 C270.326562,272.096094 311.777344,257.925781 311.777344,190.610938 C311.777344,171.478125 305.039844,155.885937 294.066406,143.838281 C295.836719,139.236719 301.5,121.874219 291.930469,97.7859375 C291.930469,97.7859375 277.759375,93.178125 244.4625,115.496094 C230.291406,111.603125 214.704688,109.11875 200.179688,109.11875 C185.294531,109.11875 169.702344,111.603125 155.885156,115.496094 C122.227344,93.178125 108.057031,97.7859375 108.057031,97.7859375 C98.49375,121.874219 104.164062,139.236719 105.933594,143.838281 C94.9484375,155.885156 88.2171875,171.478125 88.2171875,190.610938 C88.2171875,257.925781 129.667969,272.096094 168.640625,276.698437 C163.684375,280.957812 159.077344,289.099219 157.307031,300.438281 C147.383594,304.686719 121.519531,312.839062 105.933594,285.913281 C105.933594,285.913281 96.71875,269.264844 79.3617187,268.203125 C79.3617187,268.203125 61.9992187,267.849219 77.9453125,278.821875 C77.9453125,278.821875 89.6328125,284.14375 97.4320312,304.332031 C97.4320312,304.332031 108.057031,337.995313 156.946875,327.363281 L156.946875,357.475 C156.946875,362.089063 153.407812,367.398438 144.552344,365.982813 C75.1085937,342.950781 25.15625,277.051562 25.15625,199.820313 C25.15625,103.096094 103.45,24.803125 200.179688,24.803125 C296.544531,24.803125 375.197656,103.096875 374.84494,199.820313 C374.84494,277.051562 324.885938,342.596875 255.446875,365.982812 C246.585938,367.753125 243.046094,362.44375 243.046094,357.475 L243.046094,308.945312 C243.046875,292.638281 237.725,282.019531 231.353906,276.698437 L231.353906,276.698437 Z M400,200.179688 C400,89.6328125 310.361719,0 200.179688,0 C89.6328125,0 0,89.6328125 0,200.179688 C0,310.361719 89.6328125,400 200.179688,400 C310.361719,400 400,310.361719 400,200.179688 L400,200.179688 Z" id="Shape" fill="#FFFFFF"></path>
    </g>
</svg>