<?xml version="1.0" encoding="UTF-8"?><svg id="Layer_1" xmlns="http://www.w3.org/2000/svg" viewBox="0 0 256 256"><defs><style>.cls-1{fill:#db332c;}.cls-1,.cls-2{stroke-width:0px;}.cls-2{fill:#fff;}</style></defs><path class="cls-1" d="m6.64,254.31h77.83c3.8,0,5.9-4.42,3.5-7.37L10.14,151.29c-2.68-3.3-8.02-1.4-8.02,2.85v95.65c0,2.49,2.02,4.52,4.52,4.52Z"/><path class="cls-2" d="m2.12,11.33v47.22c0,2.14.75,4.22,2.12,5.87l155.86,188.23c.87,1.05,2.16,1.66,3.53,1.66h80.76c3.87,0,6-4.51,3.53-7.5L49.16,6.18c-2.04-2.47-5.08-3.91-8.29-3.91H11.17C6.17,2.28,2.12,6.33,2.12,11.33Z"/><path class="cls-1" d="m243.32,154.03c7.54-15.33,11.51-32.72,10.67-51.15C251.42,46.12,202.84,2.28,146.03,2.28h-26.87c-3.76,0-5.82,4.38-3.43,7.28l120.11,145.43c2.08,2.52,6.04,1.99,7.48-.95Z"/></svg>